<?xml version="1.0" encoding="utf-8"?>
<!-- Svg Vector Icons : http://www.onlinewebfonts.com/icon -->
<!DOCTYPE svg PUBLIC "-//W3C//DTD SVG 1.1//EN" "http://www.w3.org/Graphics/SVG/1.1/DTD/svg11.dtd">
<svg version="1.1" xmlns="http://www.w3.org/2000/svg" xmlns:xlink="http://www.w3.org/1999/xlink" x="0px" y="0px" viewBox="0 0 1000 1000" enable-background="new 0 0 1000 1000" xml:space="preserve">
<metadata> Svg Vector Icons : http://www.onlinewebfonts.com/icon </metadata>
<g><path d="M222.7,473.6c-0.6,1.3-1.8,2.4-2.2,3.7c-11.1,23.2-7.5,51.9,12.3,70.5l449.8,425.4c24.5,23.2,63.2,22.1,86.4-2.4c23.2-24.5,22.1-63.2-2.4-86.4L363,502.6l402-387.4c24.4-23.4,25-62.1,1.6-86.4c-11.9-12.4-28-18.8-43.9-18.8c-15.3,0-30.6,5.7-42.3,17.2L234.7,456.8c-0.8,0.8-1.1,2.1-2.1,2.9c-0.6,0.6-1.3,1.1-2.1,1.8C226.9,465.1,225.1,469.5,222.7,473.6L222.7,473.6z"/></g>
</svg>